<?xml version="1.0" encoding="UTF-8"?>
<!DOCTYPE svg PUBLIC "-//W3C//DTD SVG 1.1//EN" "http://www.w3.org/Graphics/SVG/1.1/DTD/svg11.dtd">
<!-- Creator: CorelDRAW X8 -->
<svg xmlns="http://www.w3.org/2000/svg" xml:space="preserve" width="7.45115in" height="6in" version="1.1" style="shape-rendering:geometricPrecision; text-rendering:geometricPrecision; image-rendering:optimizeQuality; fill-rule:evenodd; clip-rule:evenodd"
viewBox="0 0 109734 88363"
 xmlns:xlink="http://www.w3.org/1999/xlink">
 <defs>
  <style type="text/css">
   <![CDATA[
    .fil8 {fill:#FEFEFE;fill-rule:nonzero}
    .fil1 {fill:#FABFA5;fill-rule:nonzero}
    .fil4 {fill:#F7986C;fill-rule:nonzero}
    .fil13 {fill:#F3CCA5;fill-rule:nonzero}
    .fil12 {fill:#EEB57D;fill-rule:nonzero}
    .fil11 {fill:#EDA35C;fill-rule:nonzero}
    .fil14 {fill:#EDC294;fill-rule:nonzero}
    .fil10 {fill:#D68E51;fill-rule:nonzero}
    .fil6 {fill:#AB3B37;fill-rule:nonzero}
    .fil5 {fill:#7A3C38;fill-rule:nonzero}
    .fil2 {fill:#4B332F;fill-rule:nonzero}
    .fil7 {fill:#2F394A;fill-rule:nonzero}
    .fil9 {fill:#373859;fill-rule:nonzero}
    .fil3 {fill:#1A237E;fill-rule:nonzero}
    .fil0 {fill:#868EE0;fill-rule:nonzero}
   ]]>
  </style>
 </defs>
 <g id="Layer_x0020_1">
  <metadata id="CorelCorpID_0Corel-Layer"/>
  <g id="_2490692094544">
   <path class="fil0" d="M75428 76301c0,6661 -16885,12062 -37714,12062 -20829,0 -37714,-5401 -37714,-12062 0,-6662 16885,-12063 37714,-12063 20829,0 37714,5401 37714,12063z"/>
   <path class="fil0" d="M109734 76973c-41,3690 -9405,6677 -20951,6677 -11572,0 -20953,-3000 -20953,-6701 0,-3701 9381,-6702 20953,-6702 11546,0 20910,2987 20951,6677l0 49z"/>
   <path class="fil1" d="M85214 22028c0,0 -4394,8100 -11779,7247l2657 5028c0,0 9553,-1509 12116,-12275l-2994 0z"/>
   <path class="fil2" d="M88298 71919l-1401 108c0,0 -1723,2586 -5440,3017 -863,269 -916,915 -593,1616 323,700 6841,0 7973,-754 646,-701 -539,-3987 -539,-3987z"/>
   <path class="fil2" d="M97671 72727l-1401 108c0,0 -1723,2586 -5440,3017 -862,269 -916,916 -593,1616 323,700 6842,0 7973,-754 646,-701 -539,-3987 -539,-3987z"/>
   <path class="fil3" d="M88783 46314c0,0 288,14939 6679,27437l2694 323c0,0 -3340,-13791 -2047,-25103 862,-5745 -1149,-8475 -1149,-8475l-6177 5818z"/>
   <path class="fil3" d="M80271 41860c0,0 -2747,14330 5764,31244l2640 0c0,0 -3340,-13144 -1724,-24241l970 -2693 -7650 -4310z"/>
   <path class="fil3" d="M81887 42830l1940 6357c0,0 3878,-970 8080,-647l539 -5710 -10559 0z"/>
   <path class="fil0" d="M83313 29157l-3450 -3611c190,-442 4910,-4604 6299,-5065 985,-326 3010,-212 3010,-212l-5859 8888z"/>
   <path class="fil3" d="M82198 27874l1115 1283 5359 -8129c-7,-30 -11,-61 -17,-91 -2256,6 -5396,4107 -6457,6937z"/>
   <path class="fil1" d="M89562 17727c0,0 312,1301 190,2402 -437,599 -276,1186 -757,1409 0,0 -1254,1944 292,1926 1546,-19 4100,-3101 4100,-3101 0,0 -1250,-448 113,-4197l-3938 1561z"/>
   <path class="fil0" d="M96464 21928l-2934 -1573c0,0 -2825,2432 -3864,2196 -1040,-236 -834,-1786 -811,-1868 0,0 -1176,-494 -2314,967 -1303,1673 -3542,4901 -4768,9486 -1141,4272 -1924,12083 -1924,12083 4095,2350 16581,223 16581,223 -1850,-7014 34,-21514 34,-21514z"/>
   <path class="fil1" d="M92647 28828c0,0 -1356,4463 -2710,4397 -1355,-65 -1418,-4740 -1418,-4740l-3161 646c0,0 269,7515 4363,8040 4094,525 6626,-8955 6626,-8955l-3700 612z"/>
   <path class="fil3" d="M97787 23021c-177,-1073 -1224,-1672 -2172,-2000 -515,948 -1149,1841 -1840,2670l-28 375c-463,1376 -3636,7011 -3636,7011 1873,1564 6362,815 6362,815 0,0 1649,-6842 1314,-8871z"/>
   <path class="fil4" d="M89778 19696c978,386 2226,-434 3149,-1410 83,-553 254,-1243 573,-2120l-3938 1561c0,0 236,987 216,1969z"/>
   <path class="fil1" d="M84198 6602c0,0 -2735,9802 2912,11629 5647,1827 13510,-5180 11572,-12478l-14484 849z"/>
   <path class="fil5" d="M99393 8060c0,0 325,4636 -4227,8146 -358,270 -1188,-1710 -360,-3546 828,-1836 1117,-5486 1117,-5486l3470 886z"/>
   <path class="fil1" d="M95414 11369c0,0 1822,-1430 2345,122 523,1552 -1792,3190 -3929,2942l1584 -3064z"/>
   <path class="fil5" d="M94904 7593c0,0 272,4359 -1210,6906 -884,1517 3338,-3743 3092,-6722l-1882 -184z"/>
   <path class="fil5" d="M93769 9556c-104,0 -206,-50 -269,-143 -888,-1324 -2271,-1060 -3016,-784 -168,62 -353,-24 -415,-191 -62,-167 23,-353 191,-415 744,-275 2599,-724 3777,1030 100,148 60,349 -88,449 -55,37 -118,54 -180,54z"/>
   <path class="fil3" d="M84233 3524c0,0 4609,4047 11242,3982 0,0 -7555,2763 -14042,-202 -6487,-2965 2800,-3780 2800,-3780z"/>
   <path class="fil0" d="M84233 3524c0,0 1873,-3336 6699,-3524l856 0c552,21 1139,81 1761,190 6780,1185 5959,8611 5959,8611 0,0 -10236,-338 -15275,-5277z"/>
   <path class="fil5" d="M87241 10835c-82,757 -629,1318 -1222,1253 -592,-65 -1005,-731 -922,-1487 82,-758 629,-1318 1222,-1254 592,65 1005,731 922,1488z"/>
   <path class="fil5" d="M92599 11421c-82,756 -630,1317 -1222,1252 -592,-64 -1005,-730 -922,-1487 82,-757 629,-1318 1222,-1253 592,64 1005,731 922,1488z"/>
   <path class="fil6" d="M87182 14028c0,0 3,59 7,161 6,104 23,253 55,424 32,171 91,366 191,533 99,171 246,293 433,331 5,1 38,7 20,5l46 6 93 12c67,11 97,-2 147,1 96,-5 198,-28 290,-59 185,-68 353,-169 482,-278 131,-108 234,-210 298,-287 63,-75 98,-117 98,-117l8 -10c59,-70 163,-80 233,-21 61,50 76,134 42,202 -2,3 -33,65 -99,162 -68,95 -166,232 -317,370 -150,136 -346,290 -601,382 -129,43 -263,76 -412,85 -72,0 -167,7 -222,-4l-92 -11 -47 -5c-48,-10 -45,-11 -70,-17 -306,-72 -558,-313 -677,-554 -126,-243 -162,-481 -183,-678 -32,-398 25,-657 25,-657 14,-69 83,-113 151,-98 59,13 98,63 101,119l0 3z"/>
   <path class="fil0" d="M94443 20733c0,0 3446,341 3781,2370 335,2030 -1315,8872 -1315,8872 0,0 -4488,748 -6361,-815 0,0 2485,-5326 2948,-6702l947 -3725z"/>
   <path class="fil3" d="M93235 19994c0,0 -1893,1703 -3812,2571 -38,272 1858,-318 2187,229 328,547 666,1493 666,1493 0,0 2239,-2317 2706,-3559 0,0 -891,-325 -1747,-734z"/>
   <path class="fil3" d="M89561 22611c0,0 -325,-535 -223,-1276 50,-360 283,-742 416,-1228 0,0 -453,-88 -898,144 -445,232 -1795,1605 -1952,2375 9,196 1249,-580 1714,-472 464,107 943,457 943,457z"/>
   <path class="fil7" d="M81648 34421c213,691 -202,1433 -926,1657l-8365 2584c-725,225 -1486,-154 -1699,-844l-3720 -12037c-213,-690 202,-1432 926,-1656l8366 -2585c724,-224 1485,155 1698,846l3720 12035z"/>
   <polygon class="fil8" points="80609,34728 71688,37484 67977,25475 76898,22719 "/>
   <polygon class="fil0" points="76829,25294 69487,27563 69276,26880 76618,24611 "/>
   <polygon class="fil0" points="77433,27250 70091,29519 69880,28835 77222,26567 "/>
   <polygon class="fil0" points="78039,29206 70696,31475 70485,30791 77827,28522 "/>
   <polygon class="fil0" points="78642,31162 71300,33431 71089,32746 78431,30478 "/>
   <polygon class="fil0" points="79247,33118 76125,34082 75913,33398 79035,32434 "/>
   <path class="fil3" d="M75769 23068c110,355 -89,732 -445,842l-5375 1661c-355,109 -733,-89 -843,-445l0 0c-109,-355 89,-732 444,-842l5377 -1661c355,-110 732,89 842,445l0 0z"/>
   <path class="fil3" d="M73259 22828c158,512 -209,1080 -821,1269 -612,189 -1236,-73 -1394,-584 -159,-512 209,-1079 821,-1269 611,-189 1236,73 1394,584z"/>
   <path class="fil1" d="M71304 30465c916,1367 690,3123 -503,3921 -1193,799 -2902,337 -3817,-1030 -915,-1367 -689,-3123 504,-3921 1192,-799 2901,-337 3816,1030z"/>
   <path class="fil9" d="M82961 25633c-239,54 -1255,485 -1201,724l0 0c53,239 1156,195 1395,142l5947 -1331c239,-53 389,-290 336,-529l0 0c-54,-239 -291,-390 -530,-336l-5947 1330z"/>
   <path class="fil1" d="M86753 25127c1607,149 2803,1429 2670,2858 -132,1429 -1542,2467 -3150,2318 -1607,-149 -2802,-1428 -2670,-2858 133,-1428 1543,-2467 3150,-2318z"/>
   <polygon class="fil10" points="65176,56250 65137,77371 45564,80122 44899,58241 "/>
   <polygon class="fil11" points="45564,80122 35349,74565 35389,53444 45603,59000 "/>
   <polygon class="fil12" points="45603,59000 35389,53444 54962,50693 65176,56250 "/>
   <polygon class="fil13" points="43605,52289 53800,57870 57992,57246 47756,51693 "/>
   <polygon class="fil14" points="53840,63818 53791,57850 57992,57259 57992,63234 "/>
   <polygon class="fil10" points="44899,59028 44859,80149 25286,82900 24621,61020 "/>
   <polygon class="fil11" points="25286,82900 15072,77344 15111,56222 25325,61779 "/>
   <polygon class="fil12" points="25325,61779 15111,56222 34684,53471 44899,59028 "/>
   <polygon class="fil13" points="23327,55067 33522,60649 37714,60025 27478,54471 "/>
   <polygon class="fil14" points="33562,66596 33513,60628 37714,60038 37714,66013 "/>
   <polygon class="fil10" points="55390,36046 55350,57167 35777,59918 35112,38037 "/>
   <polygon class="fil11" points="35777,59918 25563,54361 25602,33240 35816,38797 "/>
   <polygon class="fil12" points="35816,38797 25602,33240 45175,30489 55390,36046 "/>
   <polygon class="fil13" points="33819,32085 44013,37666 48205,37043 37970,31489 "/>
   <polygon class="fil14" points="44053,43614 44004,37646 48205,37055 48205,43030 "/>
  </g>
 </g>
</svg>
